<svg width="20" height="20" viewBox="0 0 20 20" fill="none" xmlns="http://www.w3.org/2000/svg">
<path fill-rule="evenodd" clip-rule="evenodd" d="M9.75 2.90684e-07H9.72475C9.28029 -7.33871e-06 8.90925 -1.3478e-05 8.60464 0.0207701C8.28754 0.0424057 7.98801 0.0890486 7.69762 0.209332C7.02379 0.48844 6.48844 1.02379 6.20933 1.69762C6.08905 1.98801 6.04241 2.28754 6.02077 2.60464C6.0125 2.72577 6.00753 2.85741 6.00453 3H2.75H0.75C0.335786 3 0 3.33579 0 3.75C0 4.16421 0.335786 4.5 0.75 4.5H2V11.75C2 13.6102 2 14.5403 2.21323 15.3013C2.75486 17.2345 4.26553 18.7451 6.19867 19.2868C6.95968 19.5 7.88979 19.5 9.75 19.5C11.6102 19.5 12.5403 19.5 13.3013 19.2868C15.2345 18.7451 16.7451 17.2345 17.2868 15.3013C17.5 14.5403 17.5 13.6102 17.5 11.75V4.5H18.75C19.1642 4.5 19.5 4.16421 19.5 3.75C19.5 3.33579 19.1642 3 18.75 3H16.75H13.4955C13.4925 2.85741 13.4875 2.72577 13.4792 2.60464C13.4576 2.28754 13.411 1.98801 13.2907 1.69762C13.0116 1.02379 12.4762 0.48844 11.8024 0.209332C11.512 0.0890486 11.2125 0.0424057 10.8954 0.0207701C10.5908 -1.3478e-05 10.2197 -7.33871e-06 9.77525 2.90684e-07H9.75ZM11.9827 2.70674C11.9887 2.79423 11.9926 2.89074 11.9951 3H7.50485C7.50741 2.89074 7.51132 2.79423 7.51729 2.70674C7.53372 2.46602 7.56319 2.3488 7.59515 2.27165C7.72202 1.96536 7.96536 1.72202 8.27165 1.59515C8.3488 1.56319 8.46601 1.53372 8.70674 1.51729C8.95421 1.50041 9.2738 1.5 9.75 1.5C10.2262 1.5 10.5458 1.50041 10.7933 1.51729C11.034 1.53372 11.1512 1.56319 11.2284 1.59515C11.5346 1.72202 11.778 1.96536 11.9048 2.27165C11.9368 2.3488 11.9663 2.46602 11.9827 2.70674ZM7.25 6.5C7.66421 6.5 8 6.83579 8 7.25V14.25C8 14.6642 7.66421 15 7.25 15C6.83579 15 6.5 14.6642 6.5 14.25V7.25C6.5 6.83579 6.83579 6.5 7.25 6.5ZM12.25 6.5C12.6642 6.5 13 6.83579 13 7.25V14.25C13 14.6642 12.6642 15 12.25 15C11.8358 15 11.5 14.6642 11.5 14.25V7.25C11.5 6.83579 11.8358 6.5 12.25 6.5Z" fill="white"/>
</svg>
