<svg width="32" height="31" viewBox="0 0 32 31" fill="none" xmlns="http://www.w3.org/2000/svg">
<path d="M1.2618 0C0.564928 0 0 0.570377 0 1.27397C0 1.97757 0.564928 2.54795 1.2618 2.54795C2.42326 2.54795 3.3648 3.49857 3.3648 4.67123V14.863C3.3648 14.9297 3.36988 14.9952 3.37965 15.0591C3.41002 16.3875 3.50245 17.2549 3.78385 17.9951C4.42462 19.6805 5.7436 21.0122 7.41287 21.6591C8.50451 22.0822 9.87568 22.0822 12.618 22.0822H20.8C22.5162 22.0822 23.3743 22.0822 24.1507 21.8796C25.3359 21.5704 26.4063 20.9198 27.2316 20.0072C27.7723 19.4092 28.1739 18.6436 28.9772 17.1123C30.9852 13.2844 31.9892 11.3704 31.9998 9.81107C32.0162 7.42046 30.7054 5.2219 28.6053 4.11758C27.2355 3.39726 25.0903 3.39726 20.8 3.39726H12.618C9.87568 3.39726 8.50451 3.39726 7.41287 3.82034C6.86276 4.03355 6.35069 4.32112 5.88841 4.6712C5.88839 2.09137 3.817 0 1.2618 0Z" fill="#CBF22A"/>
<path d="M13.0386 27.6027C13.0386 29.479 11.5321 31 9.67381 31C7.81548 31 6.30901 29.479 6.30901 27.6027C6.30901 25.7265 7.81548 24.2055 9.67381 24.2055C11.5321 24.2055 13.0386 25.7265 13.0386 27.6027Z" fill="#CBF22A"/>
<path d="M26.4978 27.6027C26.4978 29.479 24.9914 31 23.133 31C21.2747 31 19.7682 29.479 19.7682 27.6027C19.7682 25.7265 21.2747 24.2055 23.133 24.2055C24.9914 24.2055 26.4978 25.7265 26.4978 27.6027Z" fill="#CBF22A"/>
</svg>
