<svg width="20" height="16" viewBox="0 0 20 16" fill="none" xmlns="http://www.w3.org/2000/svg">
<path fill-rule="evenodd" clip-rule="evenodd" d="M12.8571 2.24801e-06L12.8571 0.730613C12.8571 1.29873 13.173 1.99728 13.8015 2.78623C14.4157 3.5573 15.2521 4.31963 16.1151 5.00173C16.9739 5.68051 17.8363 6.26209 18.486 6.6749C18.8102 6.88088 19.0798 7.04383 19.2675 7.15478C19.3613 7.21024 19.4345 7.25264 19.4838 7.28088C19.5084 7.29499 19.527 7.30556 19.5392 7.31244L19.5526 7.31998L19.5555 7.32164C19.5555 7.32162 19.5556 7.32167 19.5555 7.32164C19.633 7.3649 19.7001 7.42101 19.7546 7.48554C19.905 7.61949 20 7.81675 20 8.03672C20 8.41123 19.7245 8.71993 19.3695 8.76235C19.3253 8.78179 19.2688 8.80699 19.2013 8.83781C19.0167 8.92216 18.7505 9.04834 18.4302 9.21329C17.7877 9.5441 16.9359 10.0263 16.0887 10.6347C15.2379 11.2457 14.4165 11.9662 13.8135 12.7668C13.2113 13.5663 12.8571 14.404 12.8571 15.2694L12.8571 16L11.4285 16L11.4285 15.2694C11.4285 13.9796 11.9582 12.8357 12.6818 11.875C13.4047 10.9154 14.351 10.0971 15.2679 9.43875C15.6072 9.1951 15.9459 8.97091 16.2726 8.76733L-1.53293e-06 8.76732L-1.27744e-06 7.3061L16.8069 7.30611C16.3177 6.97145 15.7803 6.58373 15.2416 6.15798C14.3369 5.44288 13.4056 4.60253 12.694 3.70924C11.9966 2.83384 11.4286 1.80637 11.4286 0.730612L11.4286 1.99824e-06L12.8571 2.24801e-06Z" fill="black"/>
</svg>
