<svg width="29" height="18" viewBox="0 0 29 18" fill="none" xmlns="http://www.w3.org/2000/svg">
<path fill-rule="evenodd" clip-rule="evenodd" d="M10.3571 18L10.3571 17.1781C10.3571 16.5389 9.89919 15.7531 8.98789 14.8655C8.09726 13.998 6.88442 13.1404 5.63305 12.3731C4.38779 11.6094 3.13739 10.9551 2.19533 10.4907C1.72528 10.259 1.33431 10.0757 1.06214 9.95087C0.926111 9.88849 0.819904 9.84078 0.7485 9.80902C0.712804 9.79314 0.685819 9.78124 0.66817 9.7735L0.64878 9.76502L0.644487 9.76315C0.644552 9.76318 0.644422 9.76313 0.644487 9.76315C0.532125 9.71449 0.43484 9.65137 0.355832 9.57877C0.137803 9.42808 -7.45556e-07 9.20616 -7.66536e-07 8.9587C-8.02257e-07 8.53737 0.399463 8.19009 0.914222 8.14235C0.978334 8.12049 1.06027 8.09214 1.15809 8.05747C1.42584 7.96257 1.81173 7.82062 2.27624 7.63505C3.20786 7.26289 4.4429 6.72037 5.67132 6.03598C6.90509 5.34861 8.0961 4.53797 8.97045 3.63735C9.84364 2.7379 10.3572 1.79548 10.3572 0.821935L10.3572 -2.26773e-07L12.4287 -4.13504e-07L12.4287 0.821935C12.4287 2.2729 11.6606 3.55982 10.6114 4.64062C9.56325 5.72023 8.19101 6.64071 6.86151 7.38141C6.36951 7.65552 5.87841 7.90773 5.40477 8.13676L29 8.13676L29 9.78063L4.62993 9.78063C5.33927 10.1571 6.11854 10.5933 6.89961 11.0723C8.21151 11.8768 9.56193 12.8222 10.5937 13.8271C11.6049 14.8119 12.4286 15.9678 12.4286 17.1781L12.4286 18L10.3571 18Z" fill="black"/>
</svg>
