<svg width="367" height="202" viewBox="0 0 367 202" fill="none" xmlns="http://www.w3.org/2000/svg">
<path d="M242.609 48.2499C239.468 46.502 237.58 44.407 238.771 40.9678C239.452 39.0003 241.207 38.4337 243.184 38.615C245.251 38.8034 246.575 39.9507 246.755 42.0004C246.87 43.3007 246.959 44.9636 246.278 45.8815C245.435 47.0147 243.779 47.5431 242.609 48.2499Z" fill="#9D9D9D"/>
<path d="M322.562 48.3321C318.146 44.6195 317.273 42.0641 319.398 39.8049C320.916 38.1901 324 38.1533 325.569 39.7312C327.748 41.9211 326.918 44.502 322.562 48.3321Z" fill="#9D9D9D"/>
<path d="M44.2387 9.7598C39.833 6.08582 38.9463 3.50462 41.0628 1.24228C42.583 -0.383067 45.6565 -0.419722 47.2314 1.16897C49.419 3.376 48.5879 5.97239 44.2387 9.7598Z" fill="#9D9D9D"/>
<path d="M167.954 120.088C167.856 122.302 165.802 124.116 163.393 124.118C160.845 124.119 158.506 121.734 158.798 119.431C159.091 117.119 161.073 115.632 163.707 115.748C166.032 115.851 168.05 117.912 167.954 120.088Z" fill="#9D9D9D"/>
<path d="M119.841 4.36916C119.989 1.83845 121.393 0.105206 123.325 0.0699214C125.458 0.0311953 128.296 2.88351 128.206 4.97848C128.116 7.13916 125.141 9.80128 123.057 9.58824C120.92 9.37037 119.668 7.33905 119.841 4.36916Z" fill="#9D9D9D"/>
<path d="M158.525 4.21211C160.015 1.81212 161.322 -0.39689 164.349 0.22136C166.215 0.603143 168.028 3.71207 167.465 5.5207C166.866 7.44968 166.031 9.56263 163.57 9.57024C159.988 9.582 159.894 6.2961 158.525 4.21211Z" fill="#9D9D9D"/>
<path d="M206.938 4.89427C206.916 7.80063 205.348 9.77448 203.183 9.62025C201.305 9.48539 198.753 7.00655 198.571 5.1405C198.371 3.07526 201.09 0.145483 203.277 0.0687109C205.409 -0.00667361 206.96 2.03711 206.938 4.89427Z" fill="#9D9D9D"/>
<path d="M246.877 5.00752C246.816 7.95597 245.221 9.85314 243.012 9.60553C241.08 9.38905 238.602 6.88256 238.489 5.02896C238.363 2.94928 241.17 0.0650675 243.325 0.0602236C245.444 0.0553796 246.937 2.13445 246.877 5.00752Z" fill="#9D9D9D"/>
<path d="M282.805 9.72383C278.244 6.21445 277.295 3.77513 279.325 1.37507C280.745 -0.307693 283.822 -0.475758 285.495 1.03763C287.794 3.11869 287.036 5.81676 282.805 9.72383Z" fill="#9D9D9D"/>
<path d="M44.4144 48.2923C39.8414 44.7482 38.8979 42.3373 40.9197 39.9463C42.3327 38.2734 45.4221 38.095 47.0931 39.5895C49.3969 41.6504 48.6492 44.3317 44.4144 48.2923Z" fill="#9D9D9D"/>
<path d="M361.437 0.108751C363.523 -0.118791 366.492 2.5205 366.599 4.69846C366.688 6.46153 364.377 9.15122 362.415 9.56898C360.238 10.0319 358.423 8.19677 358.233 5.33685C358.035 2.3794 359.283 0.343914 361.437 0.108751Z" fill="#9D9D9D"/>
<path d="M4.44123 48.2937C-0.0743953 44.7141 -1.01026 42.2609 1.01624 39.9122C2.44594 38.2551 5.53065 38.112 7.18583 39.6262C9.48069 41.7254 8.71832 44.3785 4.44123 48.2937Z" fill="#9D9D9D"/>
<path d="M84.5847 48.1094C81.3961 47.472 79.4698 46.0428 79.8947 42.5399C80.1851 40.1488 81.3367 38.857 83.7872 38.595C86.1485 38.3429 86.9884 39.9009 87.7647 41.6064C89.3694 45.1391 86.6386 46.4535 84.5847 48.1094Z" fill="#9D9D9D"/>
<path d="M282.388 48.305C278.119 44.3756 277.356 41.7325 279.635 39.6305C281.285 38.1092 284.366 38.248 285.804 39.9081C287.85 42.2723 286.927 44.7114 282.388 48.305Z" fill="#9D9D9D"/>
<path d="M4.06421 9.81226C1.89117 7.93446 -1.10648 6.73377 0.576279 3.27627C1.45275 1.47662 3.00955 -0.406704 5.30795 0.248968C6.52385 0.596175 7.54039 2.14199 8.30811 3.36065C8.71903 4.01287 8.50998 5.13195 8.39249 6.01516C8.30872 6.64524 8.07787 7.45868 7.62148 7.79544C6.56795 8.57432 5.33759 9.11301 4.06421 9.81226Z" fill="#9D9D9D"/>
<path d="M84.6215 9.50812C81.6384 8.9721 79.5435 7.78524 79.8807 4.23505C80.0704 2.23561 80.7744 0.736747 82.7786 0.177211C84.5068 -0.305552 87.3496 1.49894 88.0168 3.63056C88.9871 6.7298 86.6159 8.03355 84.6215 9.50812Z" fill="#9D9D9D"/>
<path d="M323.118 9.64855C319.247 8.69469 317.751 6.86393 318.326 3.5821C318.678 1.57366 319.867 -0.223984 321.781 0.225577C323.503 0.630874 325.536 2.10821 326.303 3.66717C327.764 6.63854 324.819 7.89378 323.118 9.64855Z" fill="#9D9D9D"/>
<path d="M202.226 48.1466C200.149 46.4538 197.449 45.016 199 42.1067C199.815 40.5811 201.869 39.1674 203.588 38.8204C205.539 38.4266 206.61 40.295 206.924 42.2908C207.453 45.6308 205.804 47.332 202.226 48.1466Z" fill="#9D9D9D"/>
<path d="M158.642 197.397C159.547 194.431 160.849 191.852 163.655 192.365C165.443 192.691 166.879 194.939 168.402 196.264C164.033 202.694 163.486 202.735 158.642 197.397Z" fill="#9D9D9D"/>
<path d="M124.678 48.2143C120.776 47.251 119.315 45.3969 119.869 42.1348C120.212 40.1191 121.416 38.3429 123.328 38.7989C125.045 39.2083 127.062 40.6871 127.83 42.2453C129.297 45.2198 126.323 46.4563 124.678 48.2143Z" fill="#9D9D9D"/>
<path d="M167.996 158.926C166.533 161.498 164.566 163.63 161.515 162.377C160.247 161.855 158.928 159.6 158.982 158.182C159.049 156.372 160.063 154.412 162.753 154.239C166.321 154.008 167.488 156.005 167.996 158.926Z" fill="#9D9D9D"/>
<path d="M88.3028 81.5257C88.2206 84.1193 86.5904 85.6236 83.95 85.5414C81.3153 85.4607 79.8351 83.87 79.9201 81.2112C80.0051 78.5809 81.5774 77.136 84.2743 77.204C86.9373 77.2706 88.3878 78.8259 88.3028 81.5257Z" fill="#9D9D9D"/>
<path d="M361.472 192.177C363.466 192.008 366.258 194.08 366.545 195.942C366.861 197.994 364.353 200.961 362.101 201.201C360.137 201.409 358.521 199.784 358.239 197.321C357.925 194.59 359.33 192.358 361.472 192.177Z" fill="#9D9D9D"/>
<path d="M4.32973 192.844C6.93668 192.866 8.49745 194.485 8.44636 197.11C8.39578 199.732 6.80302 201.275 4.1812 201.239C1.54666 201.205 0.0291233 199.634 0.0595496 196.974C0.089976 194.365 1.68637 192.821 4.32973 192.844Z" fill="#9D9D9D"/>
<path d="M44.2684 192.842C46.8668 192.886 48.428 194.519 48.3753 197.134C48.3234 199.75 46.7224 201.285 44.0885 201.245C41.4576 201.202 39.9519 199.629 39.9844 196.953C40.0163 194.338 41.6222 192.797 44.2684 192.842Z" fill="#9D9D9D"/>
<path d="M322.591 154.298C325.198 154.344 326.744 155.954 326.7 158.585C326.657 161.202 325.071 162.719 322.417 162.684C319.776 162.649 318.272 161.083 318.304 158.405C318.337 155.799 319.948 154.255 322.591 154.298Z" fill="#9D9D9D"/>
<path d="M4.15888 77.204C6.82246 77.1644 8.39647 78.6588 8.45257 81.2792C8.50929 83.9323 7.00289 85.4919 4.34562 85.5343C1.68766 85.5754 0.0990378 84.0655 0.0541785 81.4577C0.00852595 78.7806 1.49261 77.2437 4.15888 77.204Z" fill="#9D9D9D"/>
<path d="M366.607 43.4267C366.625 45.2568 364.038 47.6605 361.933 47.7667C360.156 47.8545 358.326 45.8516 358.232 43.7156C358.105 40.7806 359.446 38.7707 361.608 38.6559C363.764 38.5413 366.584 41.2325 366.607 43.4267Z" fill="#9D9D9D"/>
<path d="M48.3815 81.2324C48.4487 83.8968 46.9576 85.4762 44.3161 85.5356C41.6526 85.5952 40.0438 84.0965 39.9871 81.5016C39.9283 78.8201 41.3938 77.2706 44.0519 77.2039C46.7147 77.136 48.3152 78.6261 48.3815 81.2324Z" fill="#9D9D9D"/>
<path d="M282.907 192.842C285.445 193.015 286.948 194.778 286.771 197.376C286.597 199.925 284.847 201.42 282.245 201.247C279.727 201.079 278.213 199.303 278.373 196.708C278.528 194.199 280.326 192.666 282.907 192.842Z" fill="#9D9D9D"/>
<path d="M322.567 192.841C325.166 192.889 326.734 194.511 326.7 197.119C326.667 199.743 325.081 201.279 322.435 201.248C319.817 201.218 318.289 199.633 318.304 196.968C318.321 194.349 319.928 192.794 322.567 192.841Z" fill="#9D9D9D"/>
<path d="M282.888 154.298C285.426 154.454 286.941 156.211 286.776 158.806C286.616 161.351 284.881 162.846 282.269 162.687C279.744 162.533 278.221 160.773 278.374 158.184C278.523 155.663 280.292 154.14 282.888 154.298Z" fill="#9D9D9D"/>
<path d="M8.45472 120.047C8.39394 122.646 6.79202 124.15 4.14097 124.095C1.47825 124.04 0.00791077 122.499 0.0604767 119.82C0.112263 117.198 1.6918 115.712 4.36783 115.766C7.01818 115.82 8.51637 117.388 8.45472 120.047Z" fill="#9D9D9D"/>
<path d="M246.855 158.561C246.806 161.184 245.216 162.718 242.585 162.681C239.944 162.646 238.422 161.075 238.458 158.423C238.492 155.818 240.105 154.259 242.731 154.292C245.339 154.326 246.903 155.944 246.855 158.561Z" fill="#9D9D9D"/>
<path d="M158.593 42.5683C160.193 40.2666 161.535 37.802 164.658 38.9493C166.787 39.7326 167.911 41.9211 167.407 43.8815C167.032 45.3348 165.261 47.2229 163.865 47.4595C160.343 48.0544 159.598 44.992 158.593 42.5683Z" fill="#9D9D9D"/>
<path d="M88.3029 158.374C88.3638 161.039 86.8666 162.622 84.2306 162.68C81.5902 162.739 79.9968 161.235 79.9175 158.61C79.8381 155.99 81.3764 154.358 83.9855 154.297C86.616 154.236 88.2448 155.773 88.3029 158.374Z" fill="#9D9D9D"/>
<path d="M48.3782 158.369C48.4343 161.038 46.9356 162.623 44.3045 162.68C41.664 162.736 40.0565 161.225 39.9845 158.616C39.912 155.988 41.4439 154.365 44.0576 154.301C46.686 154.236 48.3242 155.779 48.3782 158.369Z" fill="#9D9D9D"/>
<path d="M8.45124 158.369C8.5045 161.039 7.00728 162.623 4.3768 162.678C1.71417 162.735 0.125303 161.24 0.059593 158.62C-0.00611683 155.985 1.51766 154.371 4.12989 154.304C6.76857 154.237 8.40007 155.773 8.45124 158.369Z" fill="#9D9D9D"/>
<path d="M326.703 119.663C326.84 122.327 325.391 123.965 322.778 124.095C320.132 124.227 318.446 122.759 318.305 120.204C318.162 117.591 319.656 115.904 322.237 115.765C324.877 115.623 326.57 117.101 326.703 119.663Z" fill="#9D9D9D"/>
<path d="M286.78 120.062C286.717 122.654 285.107 124.156 282.451 124.096C279.792 124.037 278.317 122.483 278.377 119.804C278.435 117.207 280.045 115.702 282.706 115.763C285.35 115.824 286.843 117.399 286.78 120.062Z" fill="#9D9D9D"/>
<path d="M242.554 115.765C245.214 115.723 246.809 117.233 246.853 119.834C246.897 122.506 245.411 124.05 242.749 124.096C240.081 124.143 238.504 122.65 238.456 120.031C238.408 117.362 239.904 115.806 242.554 115.765Z" fill="#9D9D9D"/>
<path d="M286.78 81.4804C286.727 84.0697 285.112 85.5896 282.464 85.5372C279.811 85.4847 278.316 83.9182 278.38 81.2551C278.442 78.6417 280.031 77.1459 282.692 77.1997C285.357 77.2522 286.833 78.799 286.78 81.4804Z" fill="#9D9D9D"/>
<path d="M84.2176 115.767C86.8735 115.814 88.3538 117.362 88.3028 120.039C88.2532 122.653 86.6681 124.147 84.0024 124.096C81.3422 124.047 79.8663 122.504 79.9131 119.823C79.9584 117.205 81.5334 115.721 84.2176 115.767Z" fill="#9D9D9D"/>
<path d="M48.383 119.812C48.4438 122.49 46.965 124.043 44.3051 124.096C41.6374 124.149 40.0431 122.659 39.9851 120.058C39.9248 117.394 41.4141 115.824 44.0604 115.765C46.7148 115.705 48.3241 117.212 48.383 119.812Z" fill="#9D9D9D"/>
<path d="M358.941 85.1363C358.088 78.8684 358.874 77.2083 362.424 77.2111C364.489 77.2125 366.381 79.2665 366.572 81.7169C366.789 84.5003 364.716 85.4904 358.941 85.1363Z" fill="#9D9D9D"/>
<path d="M326.702 81.0242C326.879 83.6533 325.414 85.3686 322.849 85.5386C320.214 85.7114 318.469 84.2439 318.303 81.7169C318.133 79.1148 319.618 77.3797 322.166 77.2012C324.799 77.0171 326.53 78.476 326.702 81.0242Z" fill="#9D9D9D"/>
<path d="M246.859 81.7126C246.703 84.234 244.955 85.7057 242.318 85.5386C239.754 85.3743 238.292 83.6674 238.459 81.0286C238.621 78.476 240.342 77.0213 242.986 77.2026C245.527 77.3769 247.02 79.1148 246.859 81.7126Z" fill="#9D9D9D"/>
<path d="M206.416 84.935C200.7 85.5654 198.525 84.6815 198.551 81.9733C198.577 79.364 200.87 76.9886 203.155 77.2054C206.37 77.5099 206.937 78.7649 206.416 84.935Z" fill="#9D9D9D"/>
<path d="M158.642 81.0568C163.229 75.9192 163.552 75.9179 168.022 80.9549C167.359 83.0144 167.171 85.3034 164.071 85.5953C160.876 85.8941 159.56 84.2056 158.642 81.0568Z" fill="#9D9D9D"/>
<path d="M359.003 154.53C360.571 154.44 361.72 154.174 362.792 154.355C364.961 154.719 366.951 157.294 366.285 159.113C365.715 160.664 365.22 162.596 362.827 162.698C360.269 162.807 358.477 161.589 358.297 158.915C358.201 157.476 358.746 155.993 359.003 154.53Z" fill="#9D9D9D"/>
<path d="M128.103 197.371C126.873 199.501 125.539 201.659 122.509 201.068C120.62 200.7 118.642 197.508 119.423 195.806C119.977 194.599 121.338 193.31 122.587 192.968C125.277 192.233 125.892 192.913 128.103 197.371Z" fill="#9D9D9D"/>
<path d="M206.452 193.536C206.88 199.116 205.89 201.334 203.24 201.222C201.118 201.133 198.472 198.327 198.557 196.259C198.665 193.614 200.904 192.777 206.452 193.536Z" fill="#9D9D9D"/>
<path d="M120.348 84.9322C119.805 78.7776 120.671 77.1345 124.158 77.211C126.177 77.2549 128.25 79.6955 128.032 81.772C127.74 84.5738 125.599 85.5229 120.348 84.9322Z" fill="#9D9D9D"/>
<path d="M120.184 154.62C121.951 154.474 123.065 154.209 124.133 154.332C126.236 154.576 128.486 157.097 127.949 158.861C127.464 160.454 126.977 162.374 124.705 162.68C122.249 163.013 120.332 161.787 119.924 159.177C119.726 157.909 120.052 156.561 120.184 154.62Z" fill="#9D9D9D"/>
<path d="M206.913 119.81C206.971 122.533 205.462 124.084 202.748 124.097C200.38 124.106 198.541 122.557 198.551 120.557C198.561 118.358 200.614 115.875 202.496 115.78C205.234 115.643 206.857 117.123 206.913 119.81Z" fill="#9D9D9D"/>
<path d="M83.3339 201.214C81.3905 201.14 79.8961 199.27 79.9187 196.942C79.9457 194.31 81.5351 192.787 84.198 192.844C86.463 192.892 88.3241 194.543 88.2817 196.467C88.2335 198.616 85.4431 201.293 83.3339 201.214Z" fill="#9D9D9D"/>
<path d="M242.367 192.842C244.988 192.686 246.724 194.196 246.856 196.748C246.975 199.069 245.578 200.988 243.623 201.188C241.541 201.401 238.694 198.885 238.499 196.657C238.326 194.692 240.062 192.98 242.367 192.842Z" fill="#9D9D9D"/>
<path d="M198.724 158.674C198.612 156.503 200.751 154.252 202.877 154.303C205.224 154.361 206.692 155.694 206.914 157.971C207.168 160.564 205.723 162.411 203.227 162.688C201.135 162.921 198.837 160.872 198.724 158.674Z" fill="#9D9D9D"/>
<path d="M128.034 119.749C128.138 121.932 126.022 124.138 123.892 124.095C121.48 124.047 120.131 122.827 119.858 120.449C119.559 117.846 120.992 116.038 123.529 115.761C125.645 115.53 127.929 117.552 128.034 119.749Z" fill="#9D9D9D"/>
<path d="M362.249 124.091C359.609 124.011 358.156 122.436 358.239 119.748C358.321 117.112 359.919 115.664 362.62 115.777C364.358 115.85 366.344 117.939 366.421 119.775C366.513 121.972 364.402 124.156 362.249 124.091Z" fill="#9D9D9D"/>
</svg>
