<svg width="23" height="21" viewBox="0 0 23 21" fill="none" xmlns="http://www.w3.org/2000/svg">
<path fill-rule="evenodd" clip-rule="evenodd" d="M8.31736 1.59308C9.80947 -0.531028 13.1102 -0.531028 14.6024 1.59308C14.7628 1.82152 14.9015 2.13178 15.043 2.48226C15.1902 2.8468 15.37 3.33247 15.6012 3.95707L15.6061 3.97027C15.7105 4.25229 15.7449 4.34284 15.7781 4.412C16.0803 5.04296 16.7188 5.47111 17.4488 5.53235C17.5291 5.53909 17.6242 5.53986 17.9237 5.53986H18.2074C18.2523 5.53986 18.2962 5.53986 18.3393 5.53985C19.0321 5.53971 19.4894 5.53963 19.7556 5.57545C22.8757 5.99526 24.1074 9.63155 21.8253 11.6855C21.6305 11.8608 21.2582 12.1117 20.694 12.4918C20.659 12.5154 20.6232 12.5395 20.5866 12.5641C20.3858 12.6995 20.3222 12.743 20.2716 12.7826C19.6587 13.2624 19.3988 14.0362 19.6067 14.7621C19.6238 14.822 19.6504 14.8952 19.7346 15.1227L19.738 15.1318C19.9024 15.5759 20.0301 15.9209 20.1214 16.1839C20.2091 16.4363 20.282 16.6643 20.3147 16.8532C20.7997 19.6527 17.7981 21.8399 15.0565 20.6848C14.8722 20.6071 14.6616 20.4854 14.4309 20.3445C14.1914 20.1982 13.8806 20 13.4813 19.7454L12.941 19.4008C12.5899 19.1769 12.4777 19.1073 12.375 19.0583C11.7995 18.7838 11.1203 18.7838 10.5448 19.0583C10.442 19.1073 10.3298 19.1769 9.97869 19.4008L9.46155 19.7306C9.05305 19.9911 8.73509 20.1939 8.48994 20.3435C8.25382 20.4875 8.03819 20.6119 7.84925 20.6906C5.11531 21.8299 2.13174 19.6559 2.60258 16.8675C2.63525 16.674 2.70948 16.4408 2.79903 16.1826C2.89234 15.9137 3.02289 15.561 3.19096 15.107L3.19447 15.0975C3.2797 14.8673 3.30651 14.7932 3.32384 14.7324C3.52781 14.017 3.2778 13.2545 2.68149 12.7734C2.63071 12.7324 2.56692 12.6875 2.36551 12.5477C2.32922 12.5225 2.29366 12.4979 2.25883 12.4737C1.69691 12.084 1.32512 11.8262 1.12946 11.6441C-1.09161 9.57716 0.148476 6.00086 3.23324 5.57696C3.505 5.53962 3.96618 5.53971 4.66318 5.53985C4.70638 5.53986 4.75048 5.53986 4.79549 5.53986H5.00549C5.29534 5.53986 5.38744 5.53913 5.46521 5.53282C6.19951 5.47321 6.84202 5.04236 7.14403 4.40704C7.17601 4.33976 7.20716 4.25785 7.30287 3.9993L7.35102 3.86923C7.57131 3.27415 7.74314 2.80995 7.88516 2.45954C8.02243 2.12082 8.15792 1.82006 8.31736 1.59308ZM13.152 2.50296C12.3485 1.3592 10.5712 1.3592 9.76775 2.50296C9.72595 2.56246 9.64852 2.7083 9.51088 3.04793C9.37908 3.37315 9.21557 3.81456 8.98912 4.42629L8.93392 4.57542C8.8554 4.78762 8.7986 4.94115 8.73202 5.0812C8.17114 6.26107 6.97791 7.06122 5.6142 7.17193C5.45234 7.18507 5.28024 7.18504 5.04237 7.18501L4.79549 7.18501C3.92781 7.18501 3.61048 7.18757 3.48375 7.20498C1.82272 7.43323 1.15498 9.35893 2.35094 10.4719C2.44219 10.5568 2.69638 10.7364 3.39579 11.2216L3.42151 11.2395C3.58669 11.3541 3.70609 11.4369 3.81183 11.5222C4.91926 12.4156 5.38358 13.8317 5.00476 15.1604C4.96859 15.2873 4.91842 15.4227 4.84872 15.6109L4.83769 15.6407C4.6654 16.1061 4.54058 16.4434 4.45329 16.6951C4.3616 16.9594 4.32989 17.0782 4.32169 17.1267C4.06817 18.6282 5.6747 19.7988 7.14683 19.1853C7.19518 19.1652 7.30629 19.1074 7.54568 18.9613C7.77421 18.8219 8.07759 18.6285 8.49702 18.361L9.04936 18.0088C9.33771 17.8248 9.54661 17.6915 9.7604 17.5896C10.8292 17.0798 12.0905 17.0798 13.1593 17.5896C13.3731 17.6915 13.582 17.8248 13.8703 18.0088C13.8849 18.0181 13.8998 18.0276 13.9148 18.0371L14.4462 18.376C14.8561 18.6374 15.1526 18.8264 15.3758 18.9628C15.6097 19.1056 15.7182 19.1623 15.7654 19.1822C17.2416 19.8042 18.8579 18.6265 18.5967 17.1191C18.5885 17.0717 18.5572 16.9556 18.4674 16.6971C18.3819 16.451 18.2599 16.1211 18.0914 15.6659L18.0804 15.6364C18.0116 15.4505 17.9621 15.3168 17.9263 15.1919C17.5402 13.8437 18.0229 12.4067 19.161 11.5157C19.2665 11.4332 19.3854 11.353 19.5501 11.2421L19.5757 11.2248C20.2778 10.7516 20.5339 10.5759 20.6247 10.4942C21.8535 9.38822 21.1903 7.43022 19.5103 7.20417C19.3861 7.18747 19.0697 7.18501 18.2074 7.18501L17.8856 7.18501C17.6398 7.18504 17.462 7.18507 17.2949 7.17105C15.9391 7.05733 14.7534 6.26219 14.1921 5.09041C14.1229 4.94585 14.0616 4.7804 13.9764 4.55014L13.9629 4.51351C13.7257 3.87287 13.554 3.40913 13.4165 3.06882C13.2724 2.71188 13.1927 2.561 13.152 2.50296Z" fill="#2A2A2A"/>
</svg>
