<svg width="750" height="76" viewBox="0 0 750 76" fill="none" xmlns="http://www.w3.org/2000/svg">
<path fill-rule="evenodd" clip-rule="evenodd" d="M0 38C0 17.0132 17.0132 0 38 0H382C397.396 0 410.653 9.15578 416.624 22.3195C418.339 26.101 421.851 29 426.004 29H433.996C438.149 29 441.661 26.101 443.376 22.3195C449.347 9.15578 462.604 0 478 0H712C732.987 0 750 17.0132 750 38C750 58.9868 732.987 76 712 76H478C462.604 76 449.347 66.8442 443.376 53.6805C441.661 49.899 438.149 47 433.996 47H426.004C421.851 47 418.339 49.899 416.624 53.6805C410.653 66.8442 397.396 76 382 76H38C17.0132 76 0 58.9868 0 38Z" fill="#292929"/>
</svg>
