<svg width="676" height="76" viewBox="0 0 676 76" fill="none" xmlns="http://www.w3.org/2000/svg">
<path fill-rule="evenodd" clip-rule="evenodd" d="M0 38C0 17.0132 17.0132 0 38 0H311C326.396 0 339.653 9.15578 345.624 22.3195C347.339 26.101 350.851 29 355.004 29H359.996C364.149 29 367.661 26.101 369.376 22.3195C375.347 9.15578 388.604 0 404 0H638C658.987 0 676 17.0132 676 38C676 58.9868 658.987 76 638 76H404C388.604 76 375.347 66.8442 369.376 53.6805C367.661 49.899 364.149 47 359.996 47H355.004C350.851 47 347.339 49.899 345.624 53.6805C339.653 66.8442 326.396 76 311 76H38C17.0132 76 0 58.9868 0 38Z" fill="#292929"/>
</svg>
