<svg width="353" height="76" viewBox="0 0 353 76" fill="none" xmlns="http://www.w3.org/2000/svg">
<path fill-rule="evenodd" clip-rule="evenodd" d="M0 38C0 17.0132 17.0132 0 38 0H225C240.396 0 253.653 9.15578 259.624 22.3195C261.339 26.101 264.851 29 269.004 29H270.996C275.149 29 278.661 26.101 280.376 22.3195C286.347 9.15578 299.604 0 315 0C335.987 0 353 17.0132 353 38C353 58.9868 335.987 76 315 76C299.604 76 286.347 66.8442 280.376 53.6805C278.661 49.899 275.149 47 270.996 47H269.004C264.851 47 261.339 49.899 259.624 53.6805C253.653 66.8442 240.396 76 225 76H38C17.0132 76 0 58.9868 0 38Z" fill="#292929"/>
</svg>
