<svg width="22" height="22" viewBox="0 0 22 22" fill="none" xmlns="http://www.w3.org/2000/svg">
<path d="M8.06738 1.98926C9.3297 -0.114541 12.3783 -0.114564 13.6406 1.98926C13.8342 2.31198 14.0619 3.02081 14.5156 4.43848C14.5933 4.68123 14.6321 4.80306 14.6797 4.9082C14.9695 5.54814 15.5736 5.9895 16.2715 6.07031C16.3861 6.08357 16.5142 6.08301 16.7695 6.08301C18.2069 6.08301 18.9258 6.08366 19.2949 6.1709C21.6187 6.72074 22.5763 9.50471 21.082 11.3672C20.8447 11.663 20.2785 12.1045 19.1475 12.9863L18.9502 13.1396C18.7395 13.3039 18.6342 13.3865 18.5479 13.4727C18.0787 13.9406 17.8715 14.6107 17.9951 15.2617C18.0179 15.3817 18.059 15.5097 18.1406 15.7646L18.1963 15.9395C18.6439 17.338 18.8673 18.0377 18.8975 18.4102C19.0949 20.8517 16.623 22.6258 14.373 21.6572C14.0297 21.5093 13.4384 21.0736 12.2568 20.2021C12.0508 20.0502 11.9481 19.9735 11.8477 19.916C11.2322 19.5638 10.4758 19.5638 9.86035 19.916C9.75989 19.9735 9.65724 20.0502 9.45117 20.2021C8.26964 21.0736 7.6783 21.5093 7.33496 21.6572C5.08501 22.6258 2.6131 20.8517 2.81055 18.4102C2.8407 18.0377 3.06408 17.338 3.51172 15.9395L3.57422 15.7432C3.6555 15.4892 3.69597 15.362 3.71875 15.2422C3.84063 14.6008 3.64226 13.9402 3.18652 13.4727C3.10134 13.3853 2.99715 13.3017 2.78906 13.1348L2.53223 12.9287C1.45949 12.0679 0.922928 11.637 0.694336 11.3477C-0.784671 9.4752 0.191115 6.70064 2.5166 6.16602C2.87606 6.08344 3.56393 6.08301 4.93945 6.08301C5.19434 6.08301 5.3219 6.08358 5.43652 6.07031C6.13437 5.9895 6.73856 5.54816 7.02832 4.9082C7.07591 4.80306 7.11468 4.68123 7.19238 4.43848C7.64613 3.02083 7.87379 2.31197 8.06738 1.98926Z" fill="#2A2A2A"/>
</svg>
