<svg width="36" height="36" viewBox="0 0 36 36" fill="none" xmlns="http://www.w3.org/2000/svg">
<path d="M19.3846 1.75C19.3846 0.783502 20.1681 0 21.1346 0H34.25C35.2165 0 36 0.783502 36 1.75V14.8654C36 15.8319 35.2165 16.6154 34.25 16.6154H21.1346C20.1681 16.6154 19.3846 15.8319 19.3846 14.8654V1.75Z" fill="#CBF22A"/>
<path d="M19.3846 21.1346C19.3846 20.1681 20.1681 19.3846 21.1346 19.3846H34.25C35.2165 19.3846 36 20.1681 36 21.1346V34.25C36 35.2165 35.2165 36 34.25 36H21.1346C20.1681 36 19.3846 35.2165 19.3846 34.25V21.1346Z" fill="#CBF22A"/>
<path d="M0 1.75C0 0.783502 0.783502 0 1.75 0H14.8654C15.8319 0 16.6154 0.783502 16.6154 1.75V14.8654C16.6154 15.8319 15.8319 16.6154 14.8654 16.6154H1.75C0.783502 16.6154 0 15.8319 0 14.8654V1.75Z" fill="#CBF22A"/>
<path d="M0 21.1346C0 20.1681 0.783502 19.3846 1.75 19.3846H14.8654C15.8319 19.3846 16.6154 20.1681 16.6154 21.1346V34.25C16.6154 35.2165 15.8319 36 14.8654 36H1.75C0.783502 36 0 35.2165 0 34.25V21.1346Z" fill="#CBF22A"/>
</svg>
