<svg width="640" height="640" viewBox="0 0 640 640" fill="none" xmlns="http://www.w3.org/2000/svg">
<rect width="640" height="640" rx="320" fill="#2D2D2D"/>
<path d="M155.734 142.965C155.749 139.854 158.573 137.517 161.594 138.261C168.611 139.991 175.646 142.406 182.403 144.583C220.278 156.785 257.908 177.144 287.211 204.174C294.825 211.197 301.662 218.818 308.397 226.65C309.182 227.563 309.608 228.729 309.601 229.933C309.389 263.82 309.398 297.706 309.63 331.59C309.63 331.625 309.622 331.659 309.606 331.69V331.69C309.561 331.777 309.465 331.821 309.379 331.775C307.562 330.811 296.574 319.61 294.297 317.649C286.263 310.731 277.427 304.557 268.488 298.872C235.221 277.718 198.81 264.639 160.016 258.601C157.565 258.22 155.734 256.128 155.722 253.647C155.547 216.753 155.551 179.859 155.734 142.965Z" fill="#CBF22A"/>
<path d="M483.146 137.36C483.213 137.345 483.282 137.34 483.35 137.345V137.345C483.55 137.361 483.737 137.463 483.827 137.643C484.496 138.991 484.326 141.65 484.358 143.078C484.598 154.127 484.102 165.245 484.102 176.306L484.248 252.43C484.253 254.807 482.583 256.858 480.255 257.337C467.38 259.982 454.456 262.685 441.876 266.472C402.487 278.329 359.263 300.366 331.952 331.855C331.925 331.886 331.895 331.913 331.862 331.935V331.935C331.665 332.071 331.391 332.042 331.259 331.843C330.821 331.178 330.912 330.588 330.893 329.662C330.731 321.971 331.099 314.155 331.103 306.442C331.322 280.957 331.279 255.473 330.972 229.989C330.959 228.879 331.314 227.794 331.991 226.915C360.543 189.884 402.016 165.422 445.286 149.207C457.542 144.614 470.372 140.317 483.146 137.36Z" fill="#CBF22A"/>
<path d="M515.358 191.985C515.345 189.273 517.491 187.037 520.204 186.994C526.818 186.889 533.457 186.97 540.076 186.997C542.775 187.009 544.993 189.147 545.067 191.845C545.946 223.611 544.994 255.611 544.981 287.377L544.997 343.393C545.014 353.299 545.26 363.247 545.012 373.156C544.949 375.682 542.974 377.731 540.455 377.932C528.601 378.88 517.034 379.848 505.203 382.003C440.61 393.769 379.145 430.727 341.555 484.961C341.451 485.104 341.348 485.246 341.245 485.389C338.154 489.675 332.751 487.464 334.468 482.466C339.936 466.547 348.672 451.163 357.822 438.046C394.018 386.157 450.383 358.685 511.073 347.114C513.482 346.654 515.23 344.539 515.196 342.086C514.506 292.074 515.616 242.003 515.358 191.985Z" fill="#CBF22A"/>
<path d="M95.2435 192.003C95.2728 189.252 97.5223 187.045 100.273 187.055C106.797 187.08 113.321 187.066 119.845 187.013C122.691 186.99 124.987 189.335 124.925 192.18C124.536 209.825 124.955 227.604 124.949 245.236L125.1 342.02C125.104 344.513 126.944 346.616 129.406 347.004C177.714 354.611 225.724 377.361 260.579 411.798C261.856 413.075 263.115 414.369 264.357 415.68C265.597 416.991 266.82 418.32 268.023 419.665C269.228 421.011 270.412 422.374 271.578 423.752C272.743 425.131 273.89 426.526 275.016 427.937C276.143 429.348 277.249 430.775 278.336 432.217C279.422 433.659 280.489 435.116 281.534 436.588C282.58 438.06 283.605 439.547 284.609 441.047C285.613 442.548 286.596 444.062 287.558 445.591C288.52 447.119 289.46 448.66 290.378 450.215C291.297 451.769 292.194 453.336 293.068 454.916C293.942 456.496 294.795 458.088 295.625 459.691C296.455 461.294 297.262 462.909 298.047 464.536C298.832 466.162 299.594 467.799 300.333 469.446C301.072 471.094 301.787 472.752 302.48 474.42C303.172 476.087 303.841 477.764 304.487 479.451C305.132 481.137 305.754 482.832 306.352 484.536C306.404 484.683 306.458 484.831 306.511 484.979C308.23 489.729 304.094 491.408 301.122 487.322C300.843 486.939 300.562 486.556 300.281 486.174C296.478 481.012 292.472 476.013 288.263 471.177C287.06 469.76 285.843 468.356 284.611 466.964C283.38 465.573 282.134 464.194 280.875 462.828C279.614 461.463 278.34 460.11 277.052 458.771C275.764 457.431 274.463 456.106 273.147 454.793C271.831 453.481 270.503 452.182 269.16 450.897C267.818 449.612 266.462 448.341 265.094 447.084C263.725 445.827 262.344 444.585 260.949 443.357C259.555 442.128 258.148 440.914 256.729 439.716C255.309 438.516 253.877 437.332 252.434 436.162C250.99 434.992 249.534 433.838 248.066 432.698C246.598 431.559 245.119 430.435 243.628 429.326C242.137 428.217 240.634 427.124 239.121 426.047C237.607 424.969 236.082 423.907 234.546 422.861C233.011 421.815 231.465 420.785 229.908 419.771C228.35 418.756 226.783 417.758 225.206 416.777C223.628 415.795 222.041 414.83 220.443 413.881C218.845 412.932 217.238 412 215.621 411.085C214.004 410.169 212.378 409.27 210.742 408.388C209.107 407.506 207.463 406.641 205.809 405.793C204.156 404.945 202.494 404.114 200.824 403.301C199.153 402.488 197.475 401.692 195.788 400.913C194.101 400.134 192.406 399.373 190.702 398.629C189 397.886 187.29 397.159 185.572 396.451C183.854 395.743 182.129 395.053 180.397 394.38C178.665 393.708 176.926 393.053 175.181 392.416C173.435 391.779 171.683 391.161 169.924 390.561C168.166 389.961 166.402 389.379 164.632 388.814C162.861 388.251 161.085 387.705 159.303 387.178C157.521 386.651 155.734 386.143 153.942 385.653C152.15 385.163 150.353 384.691 148.551 384.238C146.749 383.785 144.943 383.351 143.132 382.936C141.321 382.52 139.506 382.123 137.687 381.745C125.205 379.142 112.646 377.622 99.9784 376.536C97.374 376.313 95.3643 374.139 95.3668 371.525C95.4254 311.698 94.6074 251.818 95.2435 192.003Z" fill="#CBF22A"/>
<path d="M155.646 293.596C155.693 290.437 158.639 288.129 161.711 288.865C182.565 293.862 202.524 300.395 221.723 310.346C254.006 327.078 282.614 351.793 300.917 383.436C302.464 386.11 303.985 388.82 305.406 391.581C307.572 395.789 304.294 397.907 301.142 394.377C299.329 392.346 297.689 390.532 296.622 389.499C266.156 359.961 227.39 340.874 186.079 331.959C177.916 330.197 169.248 328.421 160.763 327.976C158.028 327.833 155.763 325.676 155.707 322.939C155.51 313.179 155.501 303.36 155.646 293.596Z" fill="#CBF22A"/>
<path d="M483.124 288.652C483.289 288.622 483.459 288.645 483.611 288.717V288.717C483.854 288.832 484.024 289.061 484.059 289.328C484.573 293.256 484.309 297.56 484.309 301.503C484.292 308.51 484.24 315.516 484.154 322.522C484.123 325.067 482.179 327.176 479.648 327.449C478.241 327.601 476.834 327.76 475.429 327.925C422.329 334.436 364.03 360.806 330.418 403.608C330.335 403.715 330.209 403.78 330.074 403.786V403.786C329.822 403.799 329.604 403.614 329.612 403.361C329.805 396.944 342.266 377.554 345.904 372.314C377.23 327.2 429.728 298.326 483.124 288.652Z" fill="#CBF22A"/>
</svg>
