<svg width="22" height="20" viewBox="0 0 22 20" fill="none" xmlns="http://www.w3.org/2000/svg">
<path d="M0.867489 0C0.388388 0 0 0.367985 0 0.821918C0 1.27585 0.388388 1.64384 0.867489 1.64384C1.66599 1.64384 2.3133 2.25714 2.3133 3.0137V9.58904C2.3133 9.63206 2.31679 9.6743 2.32351 9.71553C2.34439 10.5726 2.40793 11.1322 2.60139 11.6097C3.04192 12.6971 3.94872 13.5562 5.09635 13.9736C5.84685 14.2466 6.78953 14.2466 8.67489 14.2466H14.3C15.4799 14.2466 16.0698 14.2466 16.6036 14.1159C17.4184 13.9164 18.1543 13.4967 18.7217 12.9078C19.0935 12.5221 19.3696 12.0281 19.9218 11.0402C21.3023 8.57057 21.9926 7.33575 21.9999 6.32972C22.0111 4.78739 21.1099 3.36897 19.6661 2.6565C18.7244 2.19178 17.2496 2.19178 14.3 2.19178H8.67489C6.78953 2.19178 5.84685 2.19178 5.09635 2.46474C4.71815 2.60229 4.3661 2.78782 4.04828 3.01368C4.04827 1.34927 2.62418 0 0.867489 0Z" fill="white"/>
<path d="M8.96405 17.8082C8.96405 19.0187 7.92835 20 6.65075 20C5.37314 20 4.33744 19.0187 4.33744 17.8082C4.33744 16.5977 5.37314 15.6164 6.65075 15.6164C7.92835 15.6164 8.96405 16.5977 8.96405 17.8082Z" fill="white"/>
<path d="M18.2173 17.8082C18.2173 19.0187 17.1816 20 15.904 20C14.6264 20 13.5907 19.0187 13.5907 17.8082C13.5907 16.5977 14.6264 15.6164 15.904 15.6164C17.1816 15.6164 18.2173 16.5977 18.2173 17.8082Z" fill="white"/>
</svg>
