<svg width="72" height="70" viewBox="0 0 72 70" fill="none" xmlns="http://www.w3.org/2000/svg">
<path d="M2.83905 0.211426C1.27109 0.211426 0 1.48481 0 3.05561C0 4.62641 1.27109 5.89979 2.83905 5.89979C5.45233 5.89979 7.57081 8.0221 7.57081 10.6401V33.3936C7.57081 33.5424 7.58222 33.6886 7.60422 33.8313C7.67253 36.7971 7.8805 38.7336 8.51365 40.386C9.95539 44.1486 12.9231 47.1217 16.6789 48.5661C19.1351 49.5106 22.2203 49.5106 28.3905 49.5106H46.8001C50.6615 49.5106 52.5922 49.5106 54.3392 49.0584C57.0057 48.3681 59.4142 46.9156 61.2711 44.878C62.4877 43.543 63.3914 41.8338 65.1986 38.4152C69.7167 29.8692 71.9757 25.5962 71.9997 22.1149C72.0364 16.7778 69.0871 11.8695 64.3619 9.40406C61.2798 7.79591 56.4532 7.79591 46.8 7.79591H28.3905C22.2203 7.79591 19.1351 7.79591 16.6789 8.74046C15.4412 9.21644 14.2891 9.85845 13.2489 10.64C13.2489 4.88046 8.58824 0.211426 2.83905 0.211426Z" fill="#292929"/>
<path d="M29.3369 61.8354C29.3369 66.0242 25.9473 69.4199 21.7661 69.4199C17.5848 69.4199 14.1953 66.0242 14.1953 61.8354C14.1953 57.6466 17.5848 54.2509 21.7661 54.2509C25.9473 54.2509 29.3369 57.6466 29.3369 61.8354Z" fill="#292929"/>
<path d="M59.6201 61.8354C59.6201 66.0242 56.2306 69.4199 52.0493 69.4199C47.8681 69.4199 44.4785 66.0242 44.4785 61.8354C44.4785 57.6466 47.8681 54.2509 52.0493 54.2509C56.2306 54.2509 59.6201 57.6466 59.6201 61.8354Z" fill="#292929"/>
</svg>
