<svg width="62" height="79" viewBox="0 0 62 79" fill="none" xmlns="http://www.w3.org/2000/svg">
<path fill-rule="evenodd" clip-rule="evenodd" d="M62 67.6284C62 67.7261 61.9953 67.8227 61.9862 67.918C62 68.4157 62 68.9625 62 69.5411V69.7155C62 70.5726 62.0001 71.3599 61.955 72.0212C61.9065 72.7318 61.796 73.5132 61.4671 74.3072C60.7567 76.0224 59.394 77.3851 57.6788 78.0956C56.8848 78.4245 56.1034 78.5349 55.3928 78.5834C54.7315 78.6285 53.9441 78.6285 53.087 78.6284H9C4.02944 78.6284 8.42672e-07 74.599 8.42672e-07 69.6284C8.42672e-07 69.1968 0.0303758 68.7724 0.0891047 68.357C0.0308968 68.1238 8.42672e-07 67.8797 8.42672e-07 67.6284V32.2504C-4.06421e-05 26.4018 -7.30753e-05 21.7678 0.399421 18.0805C0.809041 14.2998 1.66733 11.1601 3.62868 8.46051C4.80059 6.84751 6.21908 5.42902 7.83208 4.25711C10.5316 2.29576 13.6713 1.43748 17.4521 1.02785C21.1393 0.628367 25.7732 0.628394 31.6217 0.628427H51.9413C53.3195 0.628295 54.5844 0.628175 55.6293 0.74138C56.7659 0.864527 57.9921 1.14987 59.1145 1.96532C59.7087 2.39707 60.2313 2.91967 60.6631 3.51394C61.4785 4.63631 61.7639 5.86247 61.887 6.9991C62.0002 8.04399 62.0001 9.30893 62 10.6872L62 67.6284ZM53 66.6284C53.9729 66.6284 54.5524 66.63 54.9844 66.6595C55.2517 66.6777 55.3653 66.7021 55.3947 66.7096C55.6301 66.8107 55.8177 66.9983 55.9188 67.2337C55.9263 67.2631 55.9506 67.3768 55.9689 67.644C55.9984 68.076 56 68.6555 56 69.6284C56 70.6013 55.9984 71.1808 55.9689 71.6128C55.9506 71.8801 55.9263 71.9937 55.9188 72.0232C55.8177 72.2585 55.6301 72.4461 55.3948 72.5472C55.3653 72.5547 55.2517 72.5791 54.9844 72.5973C54.5524 72.6268 53.9729 72.6284 53 72.6284H9C7.34314 72.6284 6 71.2853 6 69.6284C6 67.9716 7.34314 66.6284 9 66.6284H53ZM16 19.6284C16 17.9716 17.3431 16.6284 19 16.6284H43C44.6568 16.6284 46 17.9716 46 19.6284C46 21.2853 44.6568 22.6284 43 22.6284H19C17.3431 22.6284 16 21.2853 16 19.6284ZM16 31.6284C16 29.9716 17.3431 28.6284 19 28.6284H35C36.6568 28.6284 38 29.9716 38 31.6284C38 33.2853 36.6568 34.6284 35 34.6284H19C17.3431 34.6284 16 33.2853 16 31.6284Z" fill="#292929"/>
</svg>
