<svg width="20" height="20" viewBox="0 0 20 20" fill="none" xmlns="http://www.w3.org/2000/svg">
<path fill-rule="evenodd" clip-rule="evenodd" d="M10 0.25H9.97475C9.53029 0.249993 9.15925 0.249987 8.85464 0.27077C8.53754 0.292406 8.23801 0.339049 7.94762 0.459332C7.27379 0.73844 6.73844 1.27379 6.45933 1.94762C6.33905 2.23801 6.29241 2.53754 6.27077 2.85464C6.2625 2.97577 6.25753 3.10741 6.25453 3.25H3H1C0.585786 3.25 0.25 3.58579 0.25 4C0.25 4.41421 0.585786 4.75 1 4.75H2.25V12C2.25 13.8602 2.25 14.7903 2.46323 15.5513C3.00486 17.4845 4.51553 18.9951 6.44867 19.5368C7.20968 19.75 8.13979 19.75 10 19.75C11.8602 19.75 12.7903 19.75 13.5513 19.5368C15.4845 18.9951 16.9951 17.4845 17.5368 15.5513C17.75 14.7903 17.75 13.8602 17.75 12V4.75H19C19.4142 4.75 19.75 4.41421 19.75 4C19.75 3.58579 19.4142 3.25 19 3.25H17H13.7455C13.7425 3.10741 13.7375 2.97577 13.7292 2.85464C13.7076 2.53754 13.661 2.23801 13.5407 1.94762C13.2616 1.27379 12.7262 0.73844 12.0524 0.459332C11.762 0.339049 11.4625 0.292406 11.1454 0.27077C10.8408 0.249987 10.4697 0.249993 10.0253 0.25H10ZM12.2327 2.95674C12.2387 3.04423 12.2426 3.14074 12.2451 3.25H7.75485C7.75741 3.14074 7.76132 3.04423 7.76729 2.95674C7.78372 2.71602 7.81319 2.5988 7.84515 2.52165C7.97202 2.21536 8.21536 1.97202 8.52165 1.84515C8.5988 1.81319 8.71601 1.78372 8.95674 1.76729C9.20421 1.75041 9.5238 1.75 10 1.75C10.4762 1.75 10.7958 1.75041 11.0433 1.76729C11.284 1.78372 11.4012 1.81319 11.4784 1.84515C11.7846 1.97202 12.028 2.21536 12.1548 2.52165C12.1868 2.5988 12.2163 2.71602 12.2327 2.95674ZM7.5 6.75C7.91421 6.75 8.25 7.08579 8.25 7.5V14.5C8.25 14.9142 7.91421 15.25 7.5 15.25C7.08579 15.25 6.75 14.9142 6.75 14.5V7.5C6.75 7.08579 7.08579 6.75 7.5 6.75ZM12.5 6.75C12.9142 6.75 13.25 7.08579 13.25 7.5V14.5C13.25 14.9142 12.9142 15.25 12.5 15.25C12.0858 15.25 11.75 14.9142 11.75 14.5V7.5C11.75 7.08579 12.0858 6.75 12.5 6.75Z" fill="white"/>
</svg>
