<svg width="16" height="20" viewBox="0 0 16 20" fill="none" xmlns="http://www.w3.org/2000/svg">
<path fill-rule="evenodd" clip-rule="evenodd" d="M16 17.1795C16 17.2045 15.9988 17.2293 15.9964 17.2537C16 17.3814 16 17.5216 16 17.6699V17.7146C16 17.9344 16 18.1363 15.9884 18.3059C15.9759 18.4881 15.9474 18.6884 15.8625 18.892C15.6791 19.3318 15.3275 19.6812 14.8848 19.8634C14.6799 19.9477 14.4783 19.976 14.2949 19.9885C14.1243 20 13.9211 20 13.6999 20H2.32258C1.03986 20 2.17464e-07 18.9668 2.17464e-07 17.6923C2.17464e-07 17.5816 0.00783893 17.4728 0.0229948 17.3663C0.00797336 17.3065 2.17464e-07 17.2439 2.17464e-07 17.1795V8.10821C-1.04883e-05 6.60855 -1.88581e-05 5.42036 0.103076 4.4749C0.208785 3.50547 0.430279 2.70042 0.936433 2.00823C1.23886 1.59464 1.60492 1.23092 2.02118 0.930434C2.71784 0.427525 3.52808 0.207451 4.50376 0.10242C5.45531 -1.30442e-05 6.65115 -6.26896e-06 8.16045 2.28988e-06H13.4042C13.7599 -3.14555e-05 14.0863 -6.22658e-05 14.356 0.0289647C14.6493 0.0605407 14.9657 0.133705 15.2554 0.342794C15.4087 0.453501 15.5436 0.587502 15.655 0.739877C15.8654 1.02766 15.9391 1.34207 15.9708 1.63351C16.0001 1.90143 16 2.22577 16 2.57917L16 17.1795ZM13.6774 16.9231C13.9285 16.9231 14.078 16.9235 14.1895 16.9311C14.2585 16.9357 14.2878 16.942 14.2954 16.9439C14.3562 16.9698 14.4046 17.0179 14.4307 17.0783C14.4326 17.0858 14.4389 17.115 14.4436 17.1835C14.4512 17.2943 14.4516 17.4428 14.4516 17.6923C14.4516 17.9418 14.4512 18.0904 14.4436 18.2011C14.4389 18.2697 14.4326 18.2988 14.4307 18.3063C14.4046 18.3667 14.3562 18.4148 14.2954 18.4407C14.2878 18.4426 14.2585 18.4489 14.1895 18.4536C14.078 18.4611 13.9285 18.4615 13.6774 18.4615H2.32258C1.89501 18.4615 1.54839 18.1171 1.54839 17.6923C1.54839 17.2675 1.89501 16.9231 2.32258 16.9231H13.6774ZM4.12903 4.8718C4.12903 4.44696 4.47565 4.10257 4.90322 4.10257H11.0968C11.5243 4.10257 11.871 4.44696 11.871 4.8718C11.871 5.29663 11.5243 5.64103 11.0968 5.64103H4.90322C4.47565 5.64103 4.12903 5.29663 4.12903 4.8718ZM4.12903 7.94872C4.12903 7.52389 4.47565 7.17949 4.90322 7.17949H9.03226C9.45983 7.17949 9.80645 7.52389 9.80645 7.94872C9.80645 8.37356 9.45983 8.71795 9.03226 8.71795H4.90322C4.47565 8.71795 4.12903 8.37356 4.12903 7.94872Z" fill="white"/>
</svg>
