<svg width="16" height="20" viewBox="0 0 16 20" fill="none" xmlns="http://www.w3.org/2000/svg">
<path d="M8 0V0.75C8 3.5623 8 4.96845 8.71619 5.9542C8.94748 6.27255 9.22745 6.55252 9.54581 6.78381C10.5316 7.5 11.9377 7.5 14.75 7.5H15.5V12.75C15.5 15.5623 15.5 16.9684 14.7838 17.9542C14.5525 18.2726 14.2725 18.5525 13.9542 18.7838C12.9684 19.5 11.5623 19.5 8.75 19.5H6.75C3.9377 19.5 2.53155 19.5 1.54581 18.7838C1.22745 18.5525 0.947485 18.2726 0.716186 17.9542C0 16.9684 0 15.5623 0 12.75V6.75C0 3.9377 0 2.53155 0.716186 1.54581C0.947485 1.22745 1.22745 0.947485 1.54581 0.716186C2.53155 0 3.9377 0 6.75 0H8Z" fill="#292929"/>
<path d="M9.5 0V1.95C9.5 3.63738 9.5 4.48107 9.92971 5.07252C10.0685 5.26353 10.2365 5.43151 10.4275 5.57029C11.0189 6 11.8626 6 13.55 6L15.5 6L9.5 0Z" fill="#292929"/>
</svg>
