<svg width="18" height="19" viewBox="0 0 18 19" fill="none" xmlns="http://www.w3.org/2000/svg">
<path d="M0.709763 0.864548C0.317772 0.864548 0 1.18232 0 1.57431C0 1.9663 0.317772 2.28407 0.709763 2.28407C1.36308 2.28407 1.8927 2.81369 1.8927 3.46701V9.14512C1.8927 9.18227 1.89556 9.21875 1.90106 9.25435C1.91813 9.99447 1.97013 10.4777 2.12841 10.8901C2.48885 11.829 3.23077 12.571 4.16974 12.9314C4.78379 13.1671 5.55507 13.1671 7.09764 13.1671H11.7C12.6654 13.1671 13.148 13.1671 13.5848 13.0543C14.2514 12.882 14.8535 12.5195 15.3178 12.0111C15.6219 11.6779 15.8478 11.2514 16.2997 10.3983C17.4292 8.26562 17.9939 7.1993 17.9999 6.33055C18.0091 4.99868 17.2718 3.7738 16.0905 3.15856C15.32 2.75725 14.1133 2.75725 11.7 2.75725H7.09763C5.55507 2.75725 4.78379 2.75725 4.16974 2.99296C3.8603 3.11174 3.57226 3.27195 3.31223 3.467C3.31222 2.0297 2.14706 0.864548 0.709763 0.864548Z" fill="#292929"/>
<path d="M7.33422 16.2428C7.33422 17.2881 6.48683 18.1355 5.44152 18.1355C4.39621 18.1355 3.54882 17.2881 3.54882 16.2428C3.54882 15.1974 4.39621 14.3501 5.44152 14.3501C6.48683 14.3501 7.33422 15.1974 7.33422 16.2428Z" fill="#292929"/>
<path d="M14.905 16.2428C14.905 17.2881 14.0576 18.1355 13.0123 18.1355C11.967 18.1355 11.1196 17.2881 11.1196 16.2428C11.1196 15.1974 11.967 14.3501 13.0123 14.3501C14.0576 14.3501 14.905 15.1974 14.905 16.2428Z" fill="#292929"/>
</svg>
