<svg width="18" height="19" viewBox="0 0 18 19" fill="none" xmlns="http://www.w3.org/2000/svg">
<path d="M0.709763 0.864746C0.317772 0.864746 0 1.18252 0 1.57451C0 1.9665 0.317772 2.28427 0.709763 2.28427C1.36308 2.28427 1.8927 2.81389 1.8927 3.46721V9.14532C1.8927 9.18246 1.89556 9.21894 1.90106 9.25455C1.91813 9.99467 1.97013 10.4779 2.12841 10.8903C2.48885 11.8292 3.23077 12.5712 4.16974 12.9316C4.78379 13.1673 5.55507 13.1673 7.09764 13.1673H11.7C12.6654 13.1673 13.148 13.1673 13.5848 13.0545C14.2514 12.8822 14.8535 12.5197 15.3178 12.0113C15.6219 11.6781 15.8478 11.2516 16.2997 10.3985C17.4292 8.26582 17.9939 7.1995 17.9999 6.33075C18.0091 4.99888 17.2718 3.774 16.0905 3.15876C15.32 2.75745 14.1133 2.75745 11.7 2.75745H7.09763C5.55507 2.75745 4.78379 2.75745 4.16974 2.99316C3.8603 3.11194 3.57226 3.27215 3.31223 3.46719C3.31222 2.0299 2.14706 0.864746 0.709763 0.864746Z" fill="white"/>
<path d="M7.33422 16.243C7.33422 17.2883 6.48683 18.1357 5.44152 18.1357C4.39621 18.1357 3.54882 17.2883 3.54882 16.243C3.54882 15.1976 4.39621 14.3503 5.44152 14.3503C6.48683 14.3503 7.33422 15.1976 7.33422 16.243Z" fill="white"/>
<path d="M14.905 16.243C14.905 17.2883 14.0576 18.1357 13.0123 18.1357C11.967 18.1357 11.1196 17.2883 11.1196 16.243C11.1196 15.1976 11.967 14.3503 13.0123 14.3503C14.0576 14.3503 14.905 15.1976 14.905 16.243Z" fill="white"/>
</svg>
