<svg width="17" height="17" viewBox="0 0 17 17" fill="none" xmlns="http://www.w3.org/2000/svg">
<path d="M6.29492 1.24731C7.27892 -0.415259 9.65565 -0.415259 10.6396 1.24731C10.7905 1.50238 10.9677 2.06223 11.3213 3.18188C11.3818 3.37358 11.4121 3.46993 11.4492 3.55298C11.6751 4.05872 12.1464 4.40709 12.6904 4.47095C12.7796 4.4814 12.8789 4.48169 13.0771 4.48169H13.0781C14.1992 4.48169 14.7601 4.48202 15.0479 4.55103C16.8592 4.98567 17.6055 7.18593 16.4404 8.65747C16.2553 8.89118 15.8141 9.23926 14.9326 9.93579L14.7793 10.0569C14.6148 10.1869 14.5322 10.2524 14.4648 10.3206C14.0991 10.6904 13.9377 11.2202 14.0342 11.7346C14.052 11.8293 14.0839 11.93 14.1475 12.1311L14.1904 12.2688C14.5392 13.3734 14.7136 13.9265 14.7373 14.2209C14.8914 16.1501 12.9649 17.5525 11.2109 16.7874C10.9433 16.6706 10.482 16.3258 9.56055 15.637L9.55957 15.636C9.39987 15.5166 9.31931 15.4567 9.24121 15.4114C8.76149 15.1333 8.17204 15.1331 7.69238 15.4114C7.61408 15.4568 7.53367 15.5169 7.37305 15.637C6.45174 16.3257 5.99125 16.6706 5.72363 16.7874C3.96961 17.5527 2.0422 16.1502 2.19629 14.2209C2.21994 13.9265 2.39433 13.3735 2.74316 12.2688L2.79199 12.1145C2.85533 11.9139 2.8875 11.8136 2.90527 11.719C3.00032 11.2122 2.84541 10.69 2.49023 10.3206C2.42382 10.2515 2.34196 10.1859 2.17969 10.054L1.97949 9.89087C1.14337 9.21079 0.725119 8.87049 0.546875 8.64185C-0.606185 7.16234 0.1549 4.96955 1.96777 4.54712C2.24801 4.48189 2.78424 4.48169 3.85645 4.48169C4.05519 4.48169 4.15477 4.48144 4.24414 4.47095C4.78812 4.40703 5.25953 4.05866 5.48535 3.55298C5.5224 3.46997 5.55278 3.37348 5.61328 3.18188C5.9669 2.06207 6.14403 1.5023 6.29492 1.24731Z" fill="white"/>
</svg>
