<svg width="17" height="17" viewBox="0 0 17 17" fill="none" xmlns="http://www.w3.org/2000/svg">
<path d="M6.29492 1.24707C7.27892 -0.415504 9.65565 -0.415504 10.6396 1.24707C10.7905 1.50214 10.9677 2.06199 11.3213 3.18164C11.3818 3.37334 11.4121 3.46969 11.4492 3.55273C11.6751 4.05848 12.1464 4.40685 12.6904 4.4707C12.7796 4.48115 12.8789 4.48145 13.0771 4.48145H13.0781C14.1992 4.48145 14.7601 4.48178 15.0479 4.55078C16.8592 4.98542 17.6055 7.18569 16.4404 8.65723C16.2553 8.89094 15.8141 9.23902 14.9326 9.93555L14.7793 10.0566C14.6148 10.1866 14.5322 10.2522 14.4648 10.3203C14.0991 10.6901 13.9377 11.2199 14.0342 11.7344C14.052 11.8291 14.0839 11.9297 14.1475 12.1309L14.1904 12.2686C14.5392 13.3732 14.7136 13.9262 14.7373 14.2207C14.8914 16.1499 12.9649 17.5522 11.2109 16.7871C10.9433 16.6703 10.482 16.3255 9.56055 15.6367L9.55957 15.6357C9.39987 15.5164 9.31931 15.4564 9.24121 15.4111C8.76149 15.133 8.17204 15.1329 7.69238 15.4111C7.61408 15.4566 7.53367 15.5166 7.37305 15.6367C6.45174 16.3255 5.99125 16.6703 5.72363 16.7871C3.96961 17.5524 2.0422 16.15 2.19629 14.2207C2.21994 13.9263 2.39433 13.3732 2.74316 12.2686L2.79199 12.1143C2.85533 11.9137 2.8875 11.8134 2.90527 11.7188C3.00032 11.212 2.84541 10.6897 2.49023 10.3203C2.42382 10.2513 2.34196 10.1857 2.17969 10.0537L1.97949 9.89062C1.14337 9.21054 0.725119 8.87025 0.546875 8.6416C-0.606186 7.1621 0.1549 4.96931 1.96777 4.54688C2.24801 4.48164 2.78424 4.48145 3.85645 4.48145C4.05519 4.48145 4.15477 4.48119 4.24414 4.4707C4.78812 4.40678 5.25953 4.05841 5.48535 3.55273C5.5224 3.46972 5.55278 3.37323 5.61328 3.18164C5.9669 2.06182 6.14403 1.50205 6.29492 1.24707Z" fill="#3A3A3A"/>
</svg>
