<svg width="24" height="24" viewBox="0 0 24 24" fill="none" xmlns="http://www.w3.org/2000/svg">
<g clip-path="url(#clip0_1_494)">
<path d="M23.9996 12.1284C18.6858 12.2913 16.2602 12.4285 14.3146 14.3141C12.429 16.2597 12.3003 18.6853 12.1289 23.9991C18.6543 23.9306 23.9311 18.6538 23.9996 12.1284Z" fill="#292929"/>
<path d="M11.8717 23.9991C11.7089 18.6853 11.5717 16.2597 9.68602 14.3141C7.74038 12.4285 5.31479 12.2998 0.000976584 12.1284C0.0694878 18.6538 5.34634 23.9306 11.8717 23.9991Z" fill="#292929"/>
<path d="M23.9996 11.8712C23.9311 5.34585 18.6543 0.068999 12.1289 0.000488281C12.2917 5.3143 12.429 7.7399 14.3146 9.68553C16.2602 11.5712 18.6858 11.6998 23.9996 11.8712Z" fill="#292929"/>
<path d="M11.8717 0.000488283C5.34634 0.068999 0.0694867 5.34585 0.000976562 11.8712C5.31479 11.7084 7.74038 11.5712 9.68602 9.68553C11.5717 7.7399 11.7003 5.3143 11.8717 0.000488283Z" fill="#292929"/>
</g>
<defs>
<clipPath id="clip0_1_494">
<rect width="24" height="24" fill="white"/>
</clipPath>
</defs>
</svg>
