<svg width="23" height="21" viewBox="0 0 23 21" fill="none" xmlns="http://www.w3.org/2000/svg">
<path d="M8.31738 1.59277C9.80953 -0.530692 13.1094 -0.53067 14.6016 1.59277C14.762 1.82121 14.9014 2.13195 15.043 2.48242C15.1902 2.8469 15.3694 3.33263 15.6006 3.95703L15.6055 3.9707C15.7097 4.25236 15.7442 4.34298 15.7773 4.41211C16.0795 5.04301 16.7183 5.47093 17.4482 5.53223C17.5285 5.53896 17.6238 5.54004 17.9229 5.54004H18.3389C19.0313 5.53991 19.4886 5.53943 19.7549 5.5752C22.8749 5.99499 24.1071 9.63155 21.8252 11.6855C21.6304 11.8608 21.2575 12.1121 20.6934 12.4922C20.6584 12.5157 20.6224 12.5399 20.5859 12.5645C20.3854 12.6996 20.3221 12.7436 20.2715 12.7832C19.6586 13.263 19.3985 14.0368 19.6064 14.7627C19.6236 14.8224 19.6503 14.8961 19.7344 15.123L19.7373 15.1318C19.9016 15.5757 20.0297 15.9206 20.1211 16.1836C20.2088 16.436 20.2817 16.6645 20.3145 16.8535C20.7993 19.6529 17.7973 21.8397 15.0557 20.6846C14.8715 20.6069 14.6611 20.4855 14.4307 20.3447C14.1911 20.1984 13.8798 19.9997 13.4805 19.7451L12.9404 19.4014C12.5897 19.1777 12.4777 19.1076 12.375 19.0586C11.7995 18.7841 11.1194 18.7841 10.5439 19.0586C10.4413 19.1076 10.3291 19.1778 9.97852 19.4014L9.46094 19.7305C9.05247 19.991 8.73439 20.1942 8.48926 20.3438C8.25326 20.4877 8.03749 20.6117 7.84863 20.6904C5.11472 21.8296 2.13171 19.6555 2.60254 16.8672C2.63526 16.6738 2.70935 16.4406 2.79883 16.1826C2.89211 15.9137 3.02246 15.5612 3.19043 15.1074L3.19434 15.0977C3.27955 14.8675 3.30591 14.7932 3.32324 14.7324C3.52719 14.017 3.27696 13.2545 2.68066 12.7734C2.62995 12.7325 2.56619 12.6873 2.36523 12.5479C2.32898 12.5227 2.29359 12.4978 2.25879 12.4736C1.69692 12.084 1.32458 11.8266 1.12891 11.6445C-1.09205 9.5777 0.147998 6.00134 3.23242 5.57715C3.50418 5.5398 3.96608 5.5399 4.66309 5.54004H5.00488C5.29469 5.54004 5.38709 5.53951 5.46484 5.5332C6.19911 5.47359 6.84153 5.0425 7.14355 4.40723C7.17554 4.33995 7.20702 4.25757 7.30273 3.99902L7.35059 3.86914C7.57079 3.27429 7.74279 2.81031 7.88477 2.45996C8.02204 2.12124 8.15794 1.81975 8.31738 1.59277Z" fill="white"/>
</svg>
