<svg width="23" height="21" viewBox="0 0 23 21" fill="none" xmlns="http://www.w3.org/2000/svg">
<path d="M8.31787 1.59277C9.81002 -0.530692 13.1099 -0.53067 14.6021 1.59277C14.7625 1.82121 14.9019 2.13195 15.0435 2.48242C15.1906 2.8469 15.3699 3.33263 15.6011 3.95703L15.606 3.9707C15.7102 4.25236 15.7447 4.34298 15.7778 4.41211C16.08 5.04301 16.7188 5.47093 17.4487 5.53223C17.529 5.53896 17.6243 5.54004 17.9233 5.54004H18.3394C19.0318 5.53991 19.489 5.53943 19.7554 5.5752C22.8754 5.99499 24.1076 9.63155 21.8257 11.6855C21.6309 11.8608 21.258 12.1121 20.6938 12.4922C20.6589 12.5157 20.6228 12.5399 20.5864 12.5645C20.3859 12.6996 20.3226 12.7436 20.272 12.7832C19.6591 13.263 19.399 14.0368 19.6069 14.7627C19.6241 14.8224 19.6508 14.8961 19.7349 15.123L19.7378 15.1318C19.9021 15.5757 20.0302 15.9206 20.1216 16.1836C20.2093 16.436 20.2822 16.6645 20.3149 16.8535C20.7998 19.6529 17.7978 21.8397 15.0562 20.6846C14.872 20.6069 14.6616 20.4855 14.4312 20.3447C14.1916 20.1984 13.8802 19.9997 13.481 19.7451L12.9409 19.4014C12.5902 19.1777 12.4781 19.1076 12.3755 19.0586C11.8 18.7841 11.1199 18.7841 10.5444 19.0586C10.4418 19.1076 10.3296 19.1778 9.979 19.4014L9.46143 19.7305C9.05295 19.991 8.73488 20.1942 8.48975 20.3438C8.25374 20.4877 8.03797 20.6117 7.84912 20.6904C5.11521 21.8296 2.1322 19.6555 2.60303 16.8672C2.63574 16.6738 2.70984 16.4406 2.79932 16.1826C2.89259 15.9137 3.02295 15.5612 3.19092 15.1074L3.19482 15.0977C3.28004 14.8675 3.3064 14.7932 3.32373 14.7324C3.52768 14.017 3.27745 13.2545 2.68115 12.7734C2.63044 12.7325 2.56668 12.6873 2.36572 12.5479C2.32946 12.5227 2.29407 12.4978 2.25928 12.4736C1.69741 12.084 1.32507 11.8266 1.12939 11.6445C-1.09156 9.5777 0.148486 6.00134 3.23291 5.57715C3.50467 5.5398 3.96657 5.5399 4.66357 5.54004H5.00537C5.29518 5.54004 5.38758 5.53951 5.46533 5.5332C6.1996 5.47359 6.84201 5.0425 7.14404 4.40723C7.17603 4.33995 7.20751 4.25757 7.30322 3.99902L7.35107 3.86914C7.57128 3.27429 7.74327 2.81031 7.88525 2.45996C8.02253 2.12124 8.15843 1.81975 8.31787 1.59277Z" fill="white"/>
</svg>
