<svg width="36" height="36" viewBox="0 0 36 36" fill="none" xmlns="http://www.w3.org/2000/svg">
<path d="M13.3301 2.64075C15.4138 -0.879998 20.4485 -0.879998 22.5322 2.64075C22.8518 3.18087 23.2266 4.36748 23.9756 6.73938C24.1038 7.14527 24.1676 7.34867 24.2461 7.52454C24.7244 8.59536 25.722 9.33362 26.874 9.46887C27.0633 9.49109 27.2745 9.49036 27.6963 9.49036L29.2637 9.49329C30.6274 9.50014 31.4093 9.52726 31.8662 9.63684C35.7024 10.5569 37.2826 15.2158 34.8154 18.3322C34.4236 18.8271 33.4893 19.5647 31.6221 21.0402L31.2969 21.298C30.9489 21.573 30.7745 21.7105 30.6318 21.8546C29.8573 22.6378 29.5156 23.7593 29.7197 24.8488C29.7574 25.0495 29.8243 25.2631 29.959 25.6896L30.0518 25.9816C30.7907 28.3215 31.16 29.4919 31.21 30.1154C31.5363 34.2007 27.4555 37.1703 23.7412 35.5499C23.1745 35.3027 22.1983 34.573 20.2471 33.1144H20.2461C19.9063 32.8603 19.7371 32.732 19.5713 32.6359C18.5553 32.0465 17.307 32.0466 16.291 32.6359C16.1251 32.7321 15.9546 32.8599 15.6143 33.1144C13.6632 34.5729 12.6878 35.3027 12.1211 35.5499C8.40673 37.1705 4.32603 34.2008 4.65234 30.1154C4.70228 29.4919 5.07166 28.3214 5.81055 25.9816L5.91406 25.6544C6.04822 25.2296 6.11569 25.017 6.15332 24.8165C6.35461 23.7433 6.02569 22.6379 5.27344 21.8556C5.13279 21.7093 4.96082 21.5687 4.61719 21.2892L4.19336 20.9445C2.42269 19.5042 1.53662 18.7841 1.15918 18.2999C-1.28255 15.1669 0.328132 10.5237 4.16699 9.62903C4.76026 9.49078 5.89601 9.49036 8.16699 9.49036C8.58787 9.49036 8.79902 9.49109 8.98828 9.46887C10.1402 9.33356 11.1379 8.59534 11.6162 7.52454C11.6948 7.34866 11.7585 7.1453 11.8867 6.73938C12.6358 4.36737 13.0105 3.18083 13.3301 2.64075Z" fill="#CBF22A"/>
</svg>
