<svg width="22" height="22" viewBox="0 0 22 22" fill="none" xmlns="http://www.w3.org/2000/svg">
<path d="M8.06738 1.9895C9.32977 -0.114295 12.3794 -0.11451 13.6416 1.9895C13.8352 2.31227 14.0619 3.02203 14.5156 4.4397C14.5544 4.56088 14.5831 4.65209 14.6084 4.72583L14.6797 4.90845C14.9694 5.54841 15.5737 5.98969 16.2715 6.07056C16.3861 6.08383 16.5142 6.08423 16.7695 6.08423C18.2073 6.08423 18.9268 6.08384 19.2959 6.17114C21.6194 6.72119 22.5762 9.50506 21.082 11.3674C20.8446 11.6632 20.2783 12.105 19.1475 12.9866L18.9512 13.1399C18.7404 13.3042 18.6342 13.3868 18.5479 13.4729C18.0788 13.941 17.8714 14.6119 17.9951 15.2629C18.0179 15.3828 18.0591 15.5103 18.1406 15.7649L18.1963 15.9397C18.6439 17.3383 18.8683 18.0379 18.8984 18.4104C19.0958 20.8518 16.6239 22.6257 14.374 21.6575L14.373 21.6565C14.0297 21.5083 13.4385 21.0732 12.2578 20.2024L12.2568 20.2014C12.0511 20.0497 11.948 19.9737 11.8477 19.9163C11.2322 19.5641 10.4758 19.564 9.86035 19.9163C9.75996 19.9738 9.65708 20.0505 9.45117 20.2024C8.2697 21.0738 7.67827 21.5096 7.33496 21.6575C5.08508 22.6258 2.61313 20.8518 2.81055 18.4104C2.8407 18.0379 3.0641 17.3382 3.51172 15.9397L3.57422 15.7444C3.65553 15.4903 3.69692 15.3623 3.71973 15.2424C3.84147 14.6011 3.64216 13.9403 3.18652 13.4729L3.03418 13.3342L2.78906 13.135L2.53223 12.929C1.45955 12.0682 0.922947 11.6373 0.694336 11.3479L0.5625 11.1702C-0.681117 9.36474 0.202717 6.85246 2.30273 6.2229L2.5166 6.16626C2.78616 6.10431 3.24065 6.08908 4.03125 6.08521L4.93945 6.08423C5.19411 6.08423 5.32198 6.08379 5.43652 6.07056C6.13433 5.98975 6.73854 5.54834 7.02832 4.90845C7.07586 4.80342 7.11485 4.68193 7.19238 4.4397C7.64607 3.02224 7.87381 2.31233 8.06738 1.9895ZM11.9258 3.0188C11.4403 2.20954 10.2677 2.20952 9.78223 3.0188C9.80394 2.98261 9.75678 3.05901 9.61621 3.46216C9.48911 3.82673 9.32799 4.32944 9.09766 5.04907C9.0355 5.24328 8.95725 5.49801 8.85059 5.73364C8.27106 7.01337 7.06251 7.8952 5.66699 8.05688C5.40994 8.08664 5.14341 8.08423 4.93945 8.08423C4.24029 8.08423 3.75619 8.08358 3.40039 8.09302C3.0117 8.10335 2.9297 8.12355 2.96484 8.11548C2.07057 8.32121 1.69487 9.38852 2.26367 10.1086C2.24111 10.0801 2.29277 10.147 2.58984 10.3987C2.86138 10.6287 3.23898 10.9319 3.78418 11.3694L4.04102 11.5754C4.20777 11.7093 4.4282 11.8815 4.61914 12.0774C5.53049 13.0125 5.92843 14.3337 5.68457 15.6165C5.63348 15.8851 5.54465 16.1502 5.47949 16.3538L5.41699 16.5491C5.18971 17.2592 5.03154 17.7548 4.9248 18.1204C4.80711 18.5235 4.80041 18.6123 4.80371 18.5715C4.72785 19.5105 5.67866 20.1929 6.54395 19.8206C6.50645 19.8367 6.58851 19.8022 6.93262 19.5618C7.24476 19.3437 7.66373 19.0355 8.26367 18.593C8.42855 18.4714 8.64188 18.3099 8.86719 18.1809C10.0212 17.5204 11.4225 17.4789 12.6074 18.0569L12.8408 18.1809L13.0068 18.2825C13.1697 18.388 13.3206 18.5017 13.4443 18.593C14.0444 19.0356 14.4632 19.3437 14.7754 19.5618C15.1204 19.8028 15.2021 19.8369 15.1641 19.8206C16.0294 20.1931 16.9802 19.5105 16.9043 18.5715C16.9076 18.6123 16.9019 18.5235 16.7842 18.1204C16.6774 17.7548 16.5193 17.2593 16.292 16.5491L16.2354 16.3743C16.17 16.1702 16.0814 15.9047 16.0303 15.636C15.7829 14.3339 16.1965 12.993 17.1348 12.0569C17.3284 11.8637 17.5517 11.6945 17.7207 11.5627L17.918 11.4094C18.4928 10.9613 18.8922 10.6504 19.1787 10.4143C19.4932 10.1552 19.5467 10.0862 19.5225 10.1165C20.0973 9.40012 19.7288 8.32892 18.835 8.11743C18.8729 8.12641 18.7882 8.10499 18.3799 8.09399C18.0077 8.08398 17.5003 8.08423 16.7695 8.08423C16.5652 8.08423 16.2981 8.08665 16.041 8.05688C14.6456 7.89508 13.4369 7.01337 12.8574 5.73364C12.7507 5.49794 12.6725 5.2433 12.6104 5.04907C12.38 4.32937 12.2189 3.82673 12.0918 3.46216C11.9513 3.05919 11.9041 2.98268 11.9258 3.0188Z" fill="#FDFDFD"/>
</svg>
