<svg width="25" height="35" viewBox="0 0 25 35" fill="none" xmlns="http://www.w3.org/2000/svg">
<path fill-rule="evenodd" clip-rule="evenodd" d="M5.84937 6.61018C3.03072 10.5252 0 15.8556 0 20.8796C0 25.7885 1.72879 29.3491 4.21479 31.6757C6.67195 33.9753 9.79508 35 12.5 35C17.9492 35 25 30.5302 25 20.8796C25 18.4036 24.2225 15.8427 23.1311 13.4492C22.0346 11.0445 20.5844 8.72945 19.154 6.72398C18.1828 5.3625 17.1927 4.10981 16.322 3.0643L16.0802 2.80711C14.5962 1.22905 13.8542 0.440023 12.9403 0.286824C12.6458 0.237459 12.3453 0.236381 12.0505 0.283631C11.1355 0.430268 10.3879 1.21395 8.8926 2.78132L8.62264 3.0643C7.77102 4.07252 6.81082 5.27473 5.84937 6.61018ZM18.9655 27.8215C18.9655 32.4876 15.2709 34.5685 12.5 34.5685C9.72906 34.5685 6.03448 32.6407 6.03448 27.8215C6.03448 24.7852 8.60082 21.3664 10.4998 19.2522C11.2297 18.4397 11.5946 18.0334 12.1992 17.9326C12.369 17.9043 12.6164 17.9051 12.786 17.9346C13.3899 18.0393 13.7537 18.4497 14.4811 19.2704C16.382 21.4148 18.9655 24.8719 18.9655 27.8215Z" fill="#CBF22A"/>
</svg>
