<svg width="20" height="20" viewBox="0 0 20 20" fill="none" xmlns="http://www.w3.org/2000/svg">
<path fill-rule="evenodd" clip-rule="evenodd" d="M12 3.75C12 1.67893 13.6789 0 15.75 0C17.8211 0 19.5 1.67893 19.5 3.75C19.5 5.82107 17.8211 7.5 15.75 7.5C14.3985 7.5 13.2139 6.785 12.554 5.71261L8.17159 8.10299C7.97413 7.63369 7.69483 7.20729 7.35156 6.84165L12.0379 4.28545C12.0129 4.11057 12 3.93179 12 3.75ZM0 9.75C0 7.40279 1.90279 5.5 4.25 5.5C6.59721 5.5 8.5 7.40279 8.5 9.75C8.5 12.0972 6.59721 14 4.25 14C1.90279 14 0 12.0972 0 9.75ZM12.0379 15.2146C12.0129 15.3894 12 15.5682 12 15.75C12 17.8211 13.6789 19.5 15.75 19.5C17.8211 19.5 19.5 17.8211 19.5 15.75C19.5 13.6789 17.8211 12 15.75 12C14.3985 12 13.2139 12.715 12.554 13.7874L8.17159 11.397C7.97413 11.8663 7.69483 12.2927 7.35156 12.6583L12.0379 15.2146Z" fill="#292929"/>
</svg>
