<svg width="22" height="22" viewBox="0 0 22 22" fill="none" xmlns="http://www.w3.org/2000/svg">
<path d="M7.1909 4.43898C7.64469 3.02121 7.87158 2.31232 8.06518 1.98959C9.32744 -0.11457 12.3769 -0.11457 13.6392 1.98959C13.8328 2.31232 14.0597 3.02121 14.5134 4.43898V4.43898C14.5911 4.68174 14.63 4.80312 14.6776 4.90826C14.9673 5.54833 15.5716 5.98943 16.2696 6.07025C16.3842 6.08352 16.5119 6.08352 16.7674 6.08352V6.08352C18.2055 6.08352 18.9245 6.08352 19.2936 6.17085C21.6175 6.72073 22.5746 9.5052 21.0799 11.3677C20.8425 11.6635 20.277 12.1044 19.1459 12.9861L18.9488 13.1398C18.7377 13.3044 18.6321 13.3867 18.5456 13.473C18.0764 13.9411 17.8695 14.6112 17.9933 15.2623C18.0161 15.3823 18.0569 15.5098 18.1385 15.7648L18.1944 15.9393C18.6421 17.3381 18.8659 18.0375 18.8961 18.41C19.0937 20.8517 16.6217 22.626 14.3716 21.6574C14.0284 21.5096 13.4374 21.0738 12.2554 20.202V20.202C12.0492 20.0499 11.9461 19.9739 11.8456 19.9164C11.2302 19.5641 10.4742 19.5641 9.85873 19.9164C9.75823 19.9739 9.65514 20.0499 9.44895 20.202V20.202C8.26698 21.0738 7.67599 21.5096 7.33271 21.6574C5.08267 22.626 2.6106 20.8517 2.80827 18.41C2.83843 18.0375 3.06228 17.3381 3.50999 15.9393L3.57256 15.7438C3.65392 15.4896 3.6946 15.3625 3.7174 15.2426C3.83934 14.6012 3.64049 13.9406 3.18472 13.473C3.09952 13.3856 2.99544 13.3021 2.78728 13.1351L2.53015 12.9287C1.45741 12.0679 0.921049 11.6375 0.692456 11.3481C-0.786676 9.47564 0.189039 6.70079 2.51457 6.16615C2.87397 6.08352 3.56188 6.08352 4.93771 6.08352V6.08352C5.19266 6.08352 5.32014 6.08352 5.43478 6.07025C6.13271 5.98943 6.73704 5.54833 7.02676 4.90826C7.07435 4.80312 7.1132 4.68174 7.1909 4.43898V4.43898Z" fill="#FDFDFD"/>
</svg>
