<svg width="21" height="20" viewBox="0 0 21 20" fill="none" xmlns="http://www.w3.org/2000/svg">
<path d="M7.41318 4.10911C7.80023 3.00272 7.99376 2.44953 8.16716 2.18832C9.15613 0.698542 11.3439 0.698542 12.3328 2.18832C12.5062 2.44953 12.709 3.02923 13.1146 4.18864V4.18864C13.1994 4.43097 13.2418 4.55214 13.2875 4.65302C13.6595 5.47487 14.4454 6.03255 15.344 6.11231C15.4543 6.1221 15.576 6.1221 15.8195 6.1221H16.0639C16.7659 6.1221 17.1169 6.1221 17.2923 6.14706C19.3602 6.4415 20.1766 8.99187 18.664 10.4325C18.5358 10.5546 18.25 10.7584 17.6785 11.1661V11.1661C17.5152 11.2825 17.4336 11.3407 17.3641 11.3983C16.6097 12.0232 16.2898 13.0311 16.5457 13.9767C16.5693 14.0638 16.6035 14.1616 16.6719 14.3571V14.3571C16.9601 15.1811 17.1043 15.5931 17.1395 15.8085C17.461 17.772 15.4716 19.306 13.6544 18.4958C13.455 18.4069 13.1045 18.1704 12.4036 17.6975L11.9458 17.3885C11.6602 17.1958 11.5174 17.0995 11.3764 17.0283C10.668 16.6708 9.83198 16.6708 9.1236 17.0283C8.98255 17.0995 8.83978 17.1958 8.55424 17.3885L8.11663 17.6838C7.39941 18.1678 7.0408 18.4098 6.83634 18.5C5.02429 19.299 3.04678 17.7742 3.35885 15.8186C3.39406 15.5979 3.54142 15.1767 3.83615 14.3342V14.3342C3.90538 14.1363 3.94 14.0373 3.96386 13.9487C4.21494 13.0169 3.90719 12.0237 3.17318 11.397C3.10343 11.3375 3.02156 11.2774 2.85782 11.1571V11.1571C2.2886 10.7392 2.00399 10.5303 1.87516 10.4034C0.403039 8.95372 1.22497 6.44543 3.26955 6.14812C3.44848 6.1221 3.80156 6.1221 4.50772 6.1221H4.68867C4.92434 6.1221 5.04218 6.1221 5.14896 6.11293C6.05283 6.03528 6.8437 5.47408 7.21545 4.64656C7.25937 4.54879 7.29828 4.43756 7.3761 4.21511L7.41318 4.10911Z" stroke="white" stroke-width="2" stroke-linejoin="round"/>
</svg>
