<svg width="36" height="38" viewBox="0 0 36 38" fill="none" xmlns="http://www.w3.org/2000/svg">
<path d="M29.1456 1.10706C28.9832 0.456435 28.3994 0 27.7297 0C27.06 0 26.4763 0.456435 26.3138 1.10706C25.8686 2.8906 25.2374 4.08283 24.3869 4.93448C23.5365 5.78614 22.3459 6.41827 20.5649 6.86415C19.9152 7.02681 19.4595 7.6114 19.4595 8.28205C19.4595 8.9527 19.9152 9.53729 20.5649 9.69995C22.3459 10.1458 23.5365 10.778 24.3869 11.6296C25.2374 12.4813 25.8686 13.6735 26.3138 15.457C26.4763 16.1077 27.06 16.5641 27.7297 16.5641C28.3994 16.5641 28.9832 16.1077 29.1456 15.457C29.5909 13.6735 30.2221 12.4813 31.0725 11.6296C31.923 10.778 33.1135 10.1458 34.8945 9.69995C35.5442 9.53729 36 8.9527 36 8.28205C36 7.6114 35.5442 7.02681 34.8945 6.86415C33.1135 6.41827 31.923 5.78614 31.0725 4.93448C30.2221 4.08283 29.5909 2.8906 29.1456 1.10706Z" fill="#CBF22A"/>
<path d="M15.524 8.90194C15.3616 8.25131 14.7778 7.79487 14.1081 7.79487C13.4384 7.79487 12.8547 8.25131 12.6922 8.90194C11.83 12.3558 10.5733 14.8008 8.78461 16.592C6.99594 18.3832 4.55444 19.6417 1.10549 20.5052C0.455785 20.6678 0 21.2524 0 21.9231C0 22.5937 0.455785 23.1783 1.10549 23.341C4.55444 24.2044 6.99594 25.4629 8.78461 27.2542C10.5733 29.0454 11.83 31.4904 12.6922 34.9442C12.8546 35.5948 13.4384 36.0513 14.1081 36.0513C14.7778 36.0513 15.3616 35.5948 15.524 34.9442C16.3862 31.4904 17.6429 29.0454 19.4316 27.2542C21.2203 25.4629 23.6618 24.2044 27.1107 23.341C27.7604 23.1783 28.2162 22.5937 28.2162 21.9231C28.2162 21.2524 27.7604 20.6678 27.1107 20.5052C23.6618 19.6417 21.2203 18.3832 19.4316 16.592C17.6429 14.8008 16.3862 12.3558 15.524 8.90194Z" fill="#CBF22A"/>
<path d="M26.7132 29.3635C26.5508 28.7128 25.967 28.2564 25.2973 28.2564C24.6276 28.2564 24.0438 28.7128 23.8814 29.3635C23.6794 30.1727 23.413 30.6341 23.1099 30.9377C22.8068 31.2413 22.3459 31.508 21.5379 31.7103C20.8882 31.873 20.4324 32.4576 20.4324 33.1282C20.4324 33.7989 20.8882 34.3834 21.5379 34.5461C22.3459 34.7484 22.8068 35.0151 23.1099 35.3187C23.413 35.6223 23.6794 36.0838 23.8814 36.8929C24.0438 37.5436 24.6276 38 25.2973 38C25.967 38 26.5508 37.5436 26.7132 36.8929C26.9152 36.0838 27.1815 35.6223 27.4847 35.3187C27.7878 35.0151 28.2486 34.7484 29.0567 34.5461C29.7064 34.3834 30.1622 33.7989 30.1622 33.1282C30.1622 32.4576 29.7064 31.873 29.0567 31.7103C28.2486 31.508 27.7878 31.2413 27.4847 30.9377C27.1815 30.6341 26.9152 30.1727 26.7132 29.3635Z" fill="#CBF22A"/>
</svg>
